<svg width="56" height="20" viewBox="0 0 56 20" fill="none" xmlns="http://www.w3.org/2000/svg">
<path d="M2.94727 12.8984C2.94727 13.0078 2.88672 13.0625 2.76562 13.0625C2.6875 13.0625 2.61328 13.0469 2.54297 13.0156C2.47266 12.9883 2.4082 12.957 2.34961 12.9219C2.22852 12.8555 2.12109 12.7578 2.02734 12.6289C1.9375 12.5 1.85938 12.3516 1.79297 12.1836C1.73047 12.0156 1.67578 11.832 1.62891 11.6328C1.58594 11.4375 1.55078 11.2383 1.52344 11.0352C1.49609 10.832 1.47461 10.6309 1.45898 10.4316C1.44336 10.2324 1.43359 10.0469 1.42969 9.875C1.31641 9.83203 1.20117 9.7832 1.08398 9.72852C0.970703 9.67383 0.867188 9.61328 0.773438 9.54688C0.683594 9.47656 0.609375 9.40234 0.550781 9.32422C0.492188 9.24219 0.462891 9.15625 0.462891 9.06641C0.462891 8.99609 0.478516 8.93359 0.509766 8.87891C0.544922 8.82031 0.601562 8.79102 0.679688 8.79102C0.746094 8.79102 0.808594 8.80664 0.867188 8.83789C0.925781 8.86523 0.984375 8.90234 1.04297 8.94922C1.10156 8.99609 1.16211 9.05078 1.22461 9.11328C1.28711 9.17188 1.35352 9.23242 1.42383 9.29492C1.42383 8.89648 1.4375 8.47461 1.46484 8.0293C1.49219 7.58008 1.54102 7.13281 1.61133 6.6875C1.68164 6.23828 1.77539 5.80078 1.89258 5.375C2.01367 4.94922 2.16602 4.55664 2.34961 4.19727L2.45508 4.23242C2.32227 4.9082 2.22461 5.58594 2.16211 6.26562C2.10352 6.94141 2.07422 7.61914 2.07422 8.29883C2.07422 8.54883 2.08008 8.79688 2.0918 9.04297C2.10742 9.28516 2.12891 9.52734 2.15625 9.76953C2.27344 9.81641 2.4043 9.85352 2.54883 9.88086C2.69336 9.9082 2.85352 9.92188 3.0293 9.92188C3.32617 9.92188 3.60156 9.87695 3.85547 9.78711C4.11328 9.69727 4.34766 9.57422 4.55859 9.41797C4.77344 9.25781 4.96289 9.07031 5.12695 8.85547C5.29102 8.64062 5.42969 8.41016 5.54297 8.16406C5.65625 7.91406 5.74219 7.65625 5.80078 7.39062C5.85938 7.12109 5.88867 6.85156 5.88867 6.58203C5.88867 6.31641 5.85938 6.04688 5.80078 5.77344C5.74219 5.49609 5.6543 5.22852 5.53711 4.9707C5.42383 4.70898 5.2832 4.46484 5.11523 4.23828C4.95117 4.01172 4.76172 3.81445 4.54688 3.64648C4.33203 3.47461 4.09375 3.33984 3.83203 3.24219C3.57422 3.14063 3.29492 3.08984 2.99414 3.08984C2.74805 3.08984 2.49414 3.13477 2.23242 3.22461C1.9707 3.31445 1.73242 3.44141 1.51758 3.60547C1.30664 3.76562 1.13086 3.95898 0.990234 4.18555C0.853516 4.41211 0.785156 4.66016 0.785156 4.92969C0.785156 5.03516 0.796875 5.13086 0.820312 5.2168C0.847656 5.29883 0.875 5.375 0.902344 5.44531C0.933594 5.51562 0.960938 5.58203 0.984375 5.64453C1.01172 5.70312 1.02539 5.76367 1.02539 5.82617C1.02539 5.93945 0.986328 6.03516 0.908203 6.11328C0.833984 6.1875 0.742188 6.22461 0.632812 6.22461C0.53125 6.22461 0.451172 6.19727 0.392578 6.14258C0.333984 6.08789 0.287109 6.01953 0.251953 5.9375C0.220703 5.85547 0.199219 5.76953 0.1875 5.67969C0.179688 5.58594 0.175781 5.50391 0.175781 5.43359C0.175781 5.08984 0.255859 4.7793 0.416016 4.50195C0.580078 4.2207 0.792969 3.9707 1.05469 3.75195C1.21875 3.61133 1.38281 3.48828 1.54688 3.38281C1.71484 3.27344 1.88672 3.18359 2.0625 3.11328C2.23828 3.03906 2.42188 2.98438 2.61328 2.94922C2.80859 2.91016 3.01562 2.89062 3.23438 2.89062C3.74219 2.89062 4.21094 2.97852 4.64062 3.1543C5.07031 3.32617 5.43945 3.56836 5.74805 3.88086C6.06055 4.18945 6.30273 4.55859 6.47461 4.98828C6.65039 5.41406 6.73828 5.88281 6.73828 6.39453C6.73828 6.92188 6.64453 7.41602 6.45703 7.87695C6.27344 8.33398 6.01562 8.73438 5.68359 9.07812C5.35547 9.41797 4.96484 9.68555 4.51172 9.88086C4.05859 10.0762 3.56445 10.1738 3.0293 10.1738C2.89258 10.1738 2.75391 10.166 2.61328 10.1504C2.47266 10.1348 2.33398 10.1152 2.19727 10.0918C2.32617 10.9746 2.56055 11.8457 2.90039 12.7051C2.91211 12.7363 2.92188 12.7676 2.92969 12.7988C2.94141 12.834 2.94727 12.8672 2.94727 12.8984ZM8.46094 6.27148C8.46094 6.34961 8.44336 6.42773 8.4082 6.50586C8.37305 6.58398 8.32617 6.6543 8.26758 6.7168C8.21289 6.77539 8.14844 6.82422 8.07422 6.86328C8 6.90234 7.92383 6.92188 7.8457 6.92188C7.74414 6.92188 7.66211 6.88867 7.59961 6.82227C7.54102 6.75586 7.51172 6.67188 7.51172 6.57031C7.51172 6.49219 7.5293 6.41602 7.56445 6.3418C7.59961 6.26367 7.64453 6.19531 7.69922 6.13672C7.75781 6.07812 7.82227 6.03125 7.89258 5.99609C7.9668 5.95703 8.04297 5.9375 8.12109 5.9375C8.22266 5.9375 8.30469 5.96875 8.36719 6.03125C8.42969 6.09375 8.46094 6.17383 8.46094 6.27148ZM10.1016 10.1621C10.0117 10.3105 9.9043 10.4473 9.7793 10.5723C9.6582 10.6934 9.52344 10.8008 9.375 10.8945C9.23047 10.9844 9.07422 11.0547 8.90625 11.1055C8.74219 11.1562 8.57227 11.1816 8.39648 11.1816C8.17773 11.1816 7.98242 11.1445 7.81055 11.0703C7.64258 10.9961 7.5 10.8945 7.38281 10.7656C7.26953 10.6328 7.18164 10.4785 7.11914 10.3027C7.06055 10.123 7.03125 9.92773 7.03125 9.7168C7.03125 9.49023 7.06445 9.27539 7.13086 9.07227C7.19727 8.86914 7.28906 8.67969 7.40625 8.50391C7.52344 8.32422 7.66016 8.16016 7.81641 8.01172C7.97656 7.86328 8.14648 7.73047 8.32617 7.61328L8.39648 7.66602C8.20508 7.89258 8.04883 8.14648 7.92773 8.42773C7.81055 8.70898 7.75195 9.00195 7.75195 9.30664C7.75195 9.48242 7.77148 9.65234 7.81055 9.81641C7.85352 9.97656 7.91797 10.1191 8.00391 10.2441C8.09375 10.3691 8.20703 10.4688 8.34375 10.543C8.48047 10.6172 8.64648 10.6543 8.8418 10.6543C9.07227 10.6543 9.29102 10.6055 9.49805 10.5078C9.70898 10.4102 9.89844 10.2871 10.0664 10.1387L10.1016 10.1621ZM13.5117 10.1621C13.4102 10.3301 13.2773 10.4805 13.1133 10.6133C12.9531 10.7422 12.7754 10.8535 12.5801 10.9473C12.3887 11.0371 12.1875 11.1055 11.9766 11.1523C11.7695 11.2031 11.5703 11.2285 11.3789 11.2285C11.1445 11.2285 10.9258 11.1934 10.7227 11.123C10.5234 11.0527 10.3477 10.9512 10.1953 10.8184C10.0469 10.6816 9.92969 10.5195 9.84375 10.332C9.76172 10.1406 9.7207 9.92383 9.7207 9.68164C9.7207 9.4082 9.76953 9.14062 9.86719 8.87891C9.96875 8.61719 10.1074 8.38477 10.2832 8.18164C10.4629 7.97852 10.6738 7.81641 10.916 7.69531C11.1621 7.57031 11.4277 7.50781 11.7129 7.50781C11.8066 7.50781 11.9004 7.51758 11.9941 7.53711C12.0879 7.55664 12.1738 7.58984 12.252 7.63672C12.3301 7.67969 12.3926 7.73828 12.4395 7.8125C12.4902 7.88672 12.5156 7.98047 12.5156 8.09375C12.5156 8.20703 12.4863 8.30664 12.4277 8.39258C12.3691 8.47461 12.2949 8.54297 12.2051 8.59766C12.1152 8.65234 12.0176 8.69727 11.9121 8.73242C11.8105 8.76367 11.7129 8.78711 11.6191 8.80273V8.7207C11.6738 8.70508 11.7324 8.68359 11.7949 8.65625C11.8613 8.62891 11.9219 8.59375 11.9766 8.55078C12.0312 8.50781 12.0762 8.45703 12.1113 8.39844C12.1504 8.33984 12.1699 8.27539 12.1699 8.20508C12.1699 8.15039 12.1562 8.10547 12.1289 8.07031C12.1055 8.03125 12.0742 8 12.0352 7.97656C12 7.95312 11.959 7.93555 11.9121 7.92383C11.8652 7.91211 11.8184 7.90625 11.7715 7.90625C11.5723 7.90625 11.3926 7.95117 11.2324 8.04102C11.0762 8.12695 10.9434 8.24219 10.834 8.38672C10.7246 8.53125 10.6406 8.69336 10.582 8.87305C10.5273 9.05273 10.5 9.23438 10.5 9.41797C10.5 9.62891 10.5312 9.81836 10.5938 9.98633C10.6602 10.1504 10.752 10.291 10.8691 10.4082C10.9863 10.5254 11.1289 10.6152 11.2969 10.6777C11.4648 10.7402 11.6523 10.7715 11.8594 10.7715C11.9922 10.7715 12.1328 10.7578 12.2812 10.7305C12.4336 10.6992 12.5801 10.6562 12.7207 10.6016C12.8652 10.5469 13.002 10.4805 13.1309 10.4023C13.2598 10.3242 13.3711 10.2363 13.4648 10.1387L13.5117 10.1621ZM18.7324 3.04297C18.4629 3.37109 18.2188 3.72656 18 4.10938C17.7852 4.48828 17.5996 4.89648 17.4434 5.33398C17.2871 5.76758 17.168 6.23242 17.0859 6.72852C17.0039 7.2207 16.9629 7.74805 16.9629 8.31055C16.9629 8.57617 16.9727 8.85547 16.9922 9.14844C17.0117 9.4375 17.0449 9.72266 17.0918 10.0039C17.1426 10.2812 17.209 10.5469 17.291 10.8008C17.377 11.0508 17.4863 11.2715 17.6191 11.4629C17.752 11.6543 17.9121 11.8047 18.0996 11.9141C18.2871 12.0273 18.5078 12.084 18.7617 12.084C18.9961 12.084 19.2031 12.0059 19.3828 11.8496C19.5664 11.6973 19.7266 11.4961 19.8633 11.2461C19.7383 10.9883 19.6289 10.7188 19.5352 10.4375C19.4453 10.1562 19.3691 9.875 19.3066 9.59375C19.248 9.30859 19.2031 9.02734 19.1719 8.75C19.1445 8.47266 19.1309 8.21094 19.1309 7.96484C19.1309 7.85156 19.1328 7.70898 19.1367 7.53711C19.1445 7.36523 19.1602 7.18555 19.1836 6.99805C19.207 6.80664 19.2402 6.61523 19.2832 6.42383C19.3301 6.23242 19.3926 6.0625 19.4707 5.91406C19.5488 5.76172 19.6445 5.63867 19.7578 5.54492C19.875 5.44727 20.0176 5.39844 20.1855 5.39844C20.3379 5.39844 20.4688 5.44531 20.5781 5.53906C20.6914 5.63281 20.7871 5.75391 20.8652 5.90234C20.9434 6.04688 21.0078 6.21289 21.0586 6.40039C21.1094 6.58398 21.1484 6.76758 21.1758 6.95117C21.207 7.13086 21.2266 7.30078 21.2344 7.46094C21.2461 7.62109 21.252 7.75195 21.252 7.85352C21.252 8.07617 21.2363 8.31836 21.2051 8.58008C21.1777 8.8418 21.1328 9.11328 21.0703 9.39453C21.0117 9.67188 20.9375 9.95312 20.8477 10.2383C20.7578 10.5195 20.6523 10.791 20.5312 11.0527C20.6484 11.2363 20.7754 11.4043 20.9121 11.5566C21.0488 11.7129 21.1973 11.8457 21.3574 11.9551C21.5215 12.0684 21.6953 12.1543 21.8789 12.2129C22.0625 12.2754 22.2578 12.3066 22.4648 12.3066C22.7812 12.3066 23.0625 12.2461 23.3086 12.125C23.5547 12.0078 23.7676 11.8477 23.9473 11.6445C24.127 11.4414 24.2773 11.2031 24.3984 10.9297C24.5234 10.6562 24.623 10.3652 24.6973 10.0566C24.7715 9.74805 24.8242 9.42969 24.8555 9.10156C24.8867 8.77344 24.9023 8.45117 24.9023 8.13477C24.9023 7.68164 24.8594 7.23047 24.7734 6.78125C24.6914 6.32812 24.5684 5.89062 24.4043 5.46875C24.2441 5.04297 24.043 4.63867 23.8008 4.25586C23.5625 3.87305 23.2852 3.52344 22.9688 3.20703C22.6523 2.89062 22.2988 2.61523 21.9082 2.38086C21.5215 2.14648 21.0996 1.96289 20.6426 1.83008L20.7598 1.68945C21.2988 1.81055 21.793 2 22.2422 2.25781C22.6914 2.51562 23.0957 2.82422 23.4551 3.18359C23.8184 3.54297 24.1348 3.94336 24.4043 4.38477C24.6777 4.82617 24.9043 5.29102 25.084 5.7793C25.2676 6.26758 25.4043 6.77148 25.4941 7.29102C25.5879 7.81055 25.6348 8.32617 25.6348 8.83789C25.6348 9.1543 25.6094 9.48242 25.5586 9.82227C25.5117 10.1582 25.4355 10.4883 25.3301 10.8125C25.2246 11.1328 25.0879 11.4355 24.9199 11.7207C24.7559 12.0098 24.5566 12.2617 24.3223 12.4766C24.0879 12.6953 23.8145 12.8672 23.502 12.9922C23.1934 13.1211 22.8438 13.1855 22.4531 13.1855C22.1992 13.1855 21.9609 13.1504 21.7383 13.0801C21.5156 13.0098 21.3086 12.9102 21.1172 12.7812C20.9258 12.6562 20.748 12.5059 20.584 12.3301C20.4238 12.1543 20.2773 11.9609 20.1445 11.75C20.0312 11.918 19.9102 12.0723 19.7812 12.2129C19.6523 12.3535 19.5137 12.4727 19.3652 12.5703C19.2168 12.6719 19.0586 12.75 18.8906 12.8047C18.7266 12.8594 18.5527 12.8867 18.3691 12.8867C18.0645 12.8867 17.7969 12.8203 17.5664 12.6875C17.3398 12.5586 17.1445 12.3867 16.9805 12.1719C16.8203 11.9609 16.6875 11.7207 16.582 11.4512C16.4805 11.1855 16.3984 10.916 16.3359 10.6426C16.2773 10.3691 16.2363 10.1055 16.2129 9.85156C16.1895 9.59375 16.1777 9.37109 16.1777 9.18359C16.1777 7.96094 16.3828 6.82812 16.793 5.78516C17.207 4.73828 17.8164 3.79492 18.6211 2.95508L18.7324 3.04297ZM19.5703 7.42578C19.5703 7.64844 19.582 7.88477 19.6055 8.13477C19.6328 8.38477 19.6719 8.64062 19.7227 8.90234C19.7773 9.16406 19.8438 9.42578 19.9219 9.6875C20 9.94531 20.0938 10.1953 20.2031 10.4375C20.2695 10.2305 20.3262 10.0176 20.373 9.79883C20.4199 9.58008 20.459 9.36719 20.4902 9.16016C20.5215 8.94922 20.543 8.75 20.5547 8.5625C20.5703 8.375 20.5781 8.20703 20.5781 8.05859C20.5781 7.83203 20.5664 7.59961 20.543 7.36133C20.5234 7.12305 20.4902 6.90625 20.4434 6.71094C20.3965 6.51562 20.334 6.35547 20.2559 6.23047C20.1816 6.10547 20.0898 6.04297 19.9805 6.04297C19.918 6.04297 19.8633 6.07227 19.8164 6.13086C19.7734 6.18945 19.7363 6.26367 19.7051 6.35352C19.6777 6.43945 19.6543 6.53711 19.6348 6.64648C19.6152 6.75586 19.5996 6.86328 19.5879 6.96875C19.5801 7.07031 19.5742 7.16211 19.5703 7.24414C19.5703 7.32617 19.5703 7.38672 19.5703 7.42578ZM29.0156 7.92969C29.0156 7.97266 29 8.01172 28.9688 8.04688C28.9375 8.07812 28.9004 8.09375 28.8574 8.09375C28.8223 8.09375 28.7852 8.08398 28.7461 8.06445C28.707 8.04102 28.6621 8.01562 28.6113 7.98828C28.5645 7.96094 28.5078 7.9375 28.4414 7.91797C28.3789 7.89453 28.3066 7.88281 28.2246 7.88281C28.0332 7.88281 27.8613 7.94336 27.709 8.06445C27.5605 8.18164 27.4336 8.32812 27.3281 8.50391C27.2266 8.67969 27.1484 8.86719 27.0938 9.06641C27.0391 9.26562 27.0117 9.44531 27.0117 9.60547C27.0117 9.71875 27.0215 9.83008 27.041 9.93945C27.0605 10.0449 27.0938 10.1426 27.1406 10.2324C27.1914 10.3184 27.2598 10.3887 27.3457 10.4434C27.4316 10.4941 27.541 10.5195 27.6738 10.5195C27.8145 10.5195 27.9492 10.4941 28.0781 10.4434C28.207 10.3887 28.3281 10.3184 28.4414 10.2324C28.4453 10.1074 28.4648 9.97656 28.5 9.83984C28.5391 9.69922 28.5879 9.5625 28.6465 9.42969C28.7051 9.29297 28.7715 9.16406 28.8457 9.04297C28.9238 8.92188 29.0039 8.81445 29.0859 8.7207L29.1621 8.76758C29.1191 8.90039 29.0879 9.03711 29.0684 9.17773C29.0488 9.31836 29.0391 9.45703 29.0391 9.59375C29.0391 9.73438 29.0508 9.86719 29.0742 9.99219C29.0977 10.1172 29.1387 10.2266 29.1973 10.3203C29.2559 10.4102 29.3359 10.4824 29.4375 10.5371C29.5391 10.5879 29.6699 10.6133 29.8301 10.6133C30.0254 10.6133 30.2051 10.5684 30.3691 10.4785C30.5332 10.3887 30.6777 10.2754 30.8027 10.1387L30.8496 10.1621C30.7793 10.2988 30.6875 10.4297 30.5742 10.5547C30.4609 10.6797 30.334 10.793 30.1934 10.8945C30.0566 10.9922 29.9102 11.0703 29.7539 11.1289C29.5977 11.1875 29.4434 11.2168 29.291 11.2168C29.0762 11.2168 28.9004 11.1543 28.7637 11.0293C28.627 10.9082 28.5332 10.7539 28.4824 10.5664C28.3184 10.7305 28.1348 10.8691 27.9316 10.9824C27.7324 11.0918 27.5215 11.1465 27.2988 11.1465C27.1348 11.1465 26.9883 11.1152 26.8594 11.0527C26.7344 10.9941 26.6289 10.9141 26.543 10.8125C26.457 10.7109 26.3906 10.5918 26.3438 10.4551C26.3008 10.3145 26.2793 10.168 26.2793 10.0156C26.2793 9.83984 26.3066 9.66016 26.3613 9.47656C26.4199 9.28906 26.498 9.10547 26.5957 8.92578C26.6973 8.74609 26.8164 8.57617 26.9531 8.41602C27.0898 8.25586 27.2383 8.11523 27.3984 7.99414C27.5625 7.87305 27.7344 7.77734 27.9141 7.70703C28.0938 7.63672 28.2773 7.60156 28.4648 7.60156C28.5078 7.60156 28.5605 7.60742 28.623 7.61914C28.6855 7.62695 28.7461 7.64258 28.8047 7.66602C28.8633 7.68945 28.9121 7.72266 28.9512 7.76562C28.9941 7.80859 29.0156 7.86328 29.0156 7.92969ZM34.4414 10.1621C34.3555 10.3066 34.2539 10.4414 34.1367 10.5664C34.0234 10.6914 33.8965 10.8008 33.7559 10.8945C33.6191 10.9883 33.4707 11.0605 33.3105 11.1113C33.1504 11.166 32.9844 11.1934 32.8125 11.1934C32.5586 11.1934 32.334 11.1504 32.1387 11.0645C31.9473 10.9785 31.7812 10.8633 31.6406 10.7188C31.5 10.5703 31.3828 10.3984 31.2891 10.2031C31.1953 10.0078 31.1211 9.80469 31.0664 9.59375C31.0117 9.37891 30.9727 9.16016 30.9492 8.9375C30.9258 8.71484 30.9141 8.50195 30.9141 8.29883C30.9141 8.11133 30.9219 7.91992 30.9375 7.72461C30.9531 7.52539 30.9766 7.32227 31.0078 7.11523C30.8867 7.11914 30.7676 7.12109 30.6504 7.12109C30.5371 7.12109 30.4238 7.12109 30.3105 7.12109C30.2363 7.12109 30.1523 7.11914 30.0586 7.11523C29.9648 7.11133 29.877 7.0957 29.7949 7.06836C29.7129 7.04102 29.6445 7 29.5898 6.94531C29.5352 6.89062 29.5078 6.81055 29.5078 6.70508C29.5078 6.64648 29.5195 6.59961 29.543 6.56445C29.5625 6.5293 29.5918 6.50391 29.6309 6.48828C29.666 6.46875 29.709 6.45703 29.7598 6.45312C29.8066 6.44531 29.8555 6.44141 29.9062 6.44141C29.9648 6.44141 30.1035 6.45117 30.3223 6.4707C30.541 6.49023 30.8047 6.51172 31.1133 6.53516C31.2109 6.07422 31.3359 5.62109 31.4883 5.17578C31.6445 4.73047 31.8203 4.32422 32.0156 3.95703H32.0977C31.9727 4.38281 31.8613 4.8125 31.7637 5.24609C31.6699 5.67969 31.5996 6.11914 31.5527 6.56445C31.8379 6.58398 32.1309 6.60156 32.4316 6.61719C32.7363 6.62891 33.0332 6.63477 33.3223 6.63477C33.748 6.63477 34.0938 6.63086 34.3594 6.62305C34.625 6.61523 34.834 6.60547 34.9863 6.59375C35.166 6.57812 35.3008 6.5625 35.3906 6.54688L35.4141 6.64648C35.1797 6.70117 34.9121 6.75391 34.6113 6.80469C34.3105 6.85156 33.9902 6.89453 33.6504 6.93359C33.3105 6.96875 32.959 7 32.5957 7.02734C32.2324 7.05469 31.8711 7.07617 31.5117 7.0918C31.5039 7.16992 31.5 7.25 31.5 7.33203C31.5 7.41016 31.5 7.48828 31.5 7.56641C31.5 7.75391 31.5078 7.96094 31.5234 8.1875C31.543 8.41406 31.5762 8.64258 31.623 8.87305C31.6699 9.09961 31.7324 9.32227 31.8105 9.54102C31.8926 9.75586 31.998 9.94727 32.127 10.1152C32.2598 10.2793 32.418 10.4121 32.6016 10.5137C32.7852 10.6152 33.002 10.666 33.252 10.666C33.4824 10.666 33.6895 10.6152 33.873 10.5137C34.0605 10.4121 34.2383 10.2871 34.4062 10.1387L34.4414 10.1621ZM37.8633 10.1621C37.7617 10.3105 37.6387 10.4492 37.4941 10.5781C37.3535 10.707 37.1973 10.8184 37.0254 10.9121C36.8574 11.0059 36.6797 11.0801 36.4922 11.1348C36.3086 11.1895 36.123 11.2168 35.9355 11.2168C35.6699 11.2168 35.4219 11.1816 35.1914 11.1113C34.9609 11.0449 34.7598 10.9414 34.5879 10.8008C34.416 10.6602 34.2812 10.4844 34.1836 10.2734C34.0859 10.0586 34.0371 9.80859 34.0371 9.52344C34.0371 9.24219 34.0879 8.98047 34.1895 8.73828C34.2949 8.49219 34.4375 8.2793 34.6172 8.09961C34.8008 7.91602 35.0156 7.77148 35.2617 7.66602C35.5078 7.56055 35.7715 7.50781 36.0527 7.50781C36.1855 7.50781 36.3086 7.52734 36.4219 7.56641C36.5391 7.60156 36.6406 7.65625 36.7266 7.73047C36.8125 7.80078 36.8789 7.88867 36.9258 7.99414C36.9766 8.09961 37.002 8.2207 37.002 8.35742C37.002 8.52148 36.9688 8.66602 36.9023 8.79102C36.8359 8.91602 36.748 9.02539 36.6387 9.11914C36.5293 9.21289 36.4043 9.29102 36.2637 9.35352C36.127 9.41602 35.9824 9.4668 35.8301 9.50586C35.6816 9.54492 35.5332 9.57422 35.3848 9.59375C35.2402 9.60938 35.1074 9.61719 34.9863 9.61719H34.8457C34.8965 9.97266 35.0371 10.2441 35.2676 10.4316C35.498 10.6191 35.8164 10.7129 36.2227 10.7129C36.5117 10.7129 36.793 10.6621 37.0664 10.5605C37.3438 10.459 37.5938 10.3184 37.8164 10.1387L37.8633 10.1621ZM34.8281 9.44141H34.9746C35.1152 9.44141 35.2598 9.41992 35.4082 9.37695C35.5566 9.33008 35.6895 9.26367 35.8066 9.17773C35.9277 9.08789 36.0273 8.97852 36.1055 8.84961C36.1836 8.7207 36.2227 8.57422 36.2227 8.41016C36.2227 8.25 36.1875 8.11719 36.1172 8.01172C36.0508 7.90625 35.9336 7.85352 35.7656 7.85352C35.5938 7.85352 35.4473 7.90625 35.3262 8.01172C35.209 8.11328 35.1133 8.24023 35.0391 8.39258C34.9648 8.54102 34.9102 8.69922 34.875 8.86719C34.8438 9.03125 34.8281 9.17773 34.8281 9.30664V9.44141ZM42.082 10.1621C42.0117 10.3184 41.9219 10.459 41.8125 10.584C41.707 10.709 41.5918 10.8164 41.4668 10.9062C41.3418 10.9922 41.2129 11.0586 41.0801 11.1055C40.9473 11.1562 40.8203 11.1816 40.6992 11.1816C40.4727 11.1816 40.2812 11.1426 40.125 11.0645C39.9688 10.9863 39.8418 10.8809 39.7441 10.748C39.6465 10.6152 39.5762 10.459 39.5332 10.2793C39.4902 10.0996 39.4688 9.9082 39.4688 9.70508C39.4688 9.54883 39.4805 9.38672 39.5039 9.21875C39.5273 9.05078 39.5605 8.88867 39.6035 8.73242C39.6113 8.70898 39.6191 8.68164 39.627 8.65039C39.6348 8.61523 39.6387 8.58594 39.6387 8.5625C39.6387 8.54297 39.627 8.52734 39.6035 8.51562C39.5371 8.49219 39.4668 8.4707 39.3926 8.45117C39.3184 8.42773 39.2441 8.40234 39.1699 8.375C39.0996 8.34766 39.0312 8.31641 38.9648 8.28125C38.9023 8.24609 38.8477 8.20117 38.8008 8.14648C38.7969 8.38086 38.7578 8.61914 38.6836 8.86133C38.6094 9.09961 38.5098 9.33008 38.3848 9.55273C38.2637 9.77148 38.1211 9.97656 37.957 10.168C37.793 10.3594 37.6191 10.5254 37.4355 10.666L37.377 10.6074C37.4902 10.4824 37.5938 10.334 37.6875 10.1621C37.7812 9.99023 37.8613 9.81055 37.9277 9.62305C37.9941 9.43555 38.0449 9.24609 38.0801 9.05469C38.1191 8.86328 38.1387 8.68359 38.1387 8.51562C38.1387 8.42969 38.1309 8.34961 38.1152 8.27539C38.0996 8.19727 38.082 8.12305 38.0625 8.05273C38.0469 7.98242 38.0312 7.91602 38.0156 7.85352C38 7.78711 37.9922 7.7207 37.9922 7.6543C37.9922 7.54492 38.0273 7.45898 38.0977 7.39648C38.168 7.33398 38.2578 7.30273 38.3672 7.30273C38.4258 7.30273 38.4707 7.32031 38.502 7.35547C38.5332 7.38672 38.5605 7.42578 38.584 7.47266C38.6074 7.51953 38.6348 7.56836 38.666 7.61914C38.6973 7.66992 38.7422 7.71289 38.8008 7.74805C38.875 7.79102 38.9688 7.82227 39.082 7.8418C39.1953 7.86133 39.3145 7.87891 39.4395 7.89453C39.5645 7.91016 39.6895 7.92578 39.8145 7.94141C39.9395 7.95703 40.0508 7.98438 40.1484 8.02344C40.25 8.05859 40.332 8.10938 40.3945 8.17578C40.457 8.23828 40.4883 8.32422 40.4883 8.43359C40.4883 8.48828 40.4824 8.54297 40.4707 8.59766C40.4629 8.64844 40.4492 8.69727 40.4297 8.74414C40.3828 8.9082 40.3418 9.07617 40.3066 9.24805C40.2754 9.41602 40.2598 9.58398 40.2598 9.75195C40.2598 9.89648 40.2695 10.0293 40.2891 10.1504C40.3125 10.2676 40.3535 10.3691 40.4121 10.4551C40.4707 10.541 40.5488 10.6074 40.6465 10.6543C40.7441 10.7012 40.8691 10.7246 41.0215 10.7246C41.2402 10.7246 41.4316 10.6719 41.5957 10.5664C41.7598 10.457 41.9043 10.3145 42.0293 10.1387L42.082 10.1621ZM44.8301 7.60156C44.7598 7.66406 44.6641 7.72656 44.543 7.78906C44.4219 7.84766 44.2852 7.90625 44.1328 7.96484C43.9805 8.01953 43.8164 8.07227 43.6406 8.12305C43.4688 8.17383 43.2969 8.21875 43.125 8.25781C43.1289 8.77344 43.127 9.28906 43.1191 9.80469C43.1113 10.3203 43.0859 10.834 43.043 11.3457C43.0039 11.8613 42.9414 12.3711 42.8555 12.875C42.7734 13.3789 42.6562 13.873 42.5039 14.3574H42.3574V8.4043C42.2598 8.41992 42.1699 8.43164 42.0879 8.43945C42.0059 8.44336 41.9336 8.44531 41.8711 8.44531C41.793 8.44531 41.7168 8.44141 41.6426 8.43359C41.5723 8.42188 41.5078 8.40039 41.4492 8.36914C41.3945 8.33398 41.3496 8.28711 41.3145 8.22852C41.2793 8.16992 41.2617 8.08984 41.2617 7.98828C41.2617 7.86719 41.3008 7.77344 41.3789 7.70703C41.457 7.63672 41.5527 7.60156 41.666 7.60156C41.7793 7.60156 41.8926 7.60742 42.0059 7.61914C42.123 7.62695 42.2402 7.63672 42.3574 7.64844V7.63086C42.3574 7.35352 42.3633 7.04883 42.375 6.7168C42.3906 6.38086 42.4238 6.04492 42.4746 5.70898C42.5293 5.37305 42.6074 5.04688 42.709 4.73047C42.8105 4.41406 42.9492 4.13477 43.125 3.89258C43.3047 3.64648 43.5273 3.44922 43.793 3.30078C44.0586 3.15234 44.3809 3.07812 44.7598 3.07812C44.959 3.07812 45.1348 3.11328 45.2871 3.18359C45.4395 3.25391 45.5664 3.35156 45.668 3.47656C45.7695 3.59766 45.8457 3.74219 45.8965 3.91016C45.9473 4.07422 45.9727 4.25 45.9727 4.4375C45.9727 4.64062 45.9355 4.83984 45.8613 5.03516C45.7871 5.23047 45.6895 5.41406 45.5684 5.58594C45.4473 5.75781 45.3066 5.91602 45.1465 6.06055C44.9902 6.20117 44.8281 6.32031 44.6602 6.41797L44.6016 6.2832C44.7148 6.18164 44.8125 6.06445 44.8945 5.93164C44.9805 5.79492 45.0508 5.65039 45.1055 5.49805C45.1602 5.3457 45.1992 5.19141 45.2227 5.03516C45.25 4.875 45.2637 4.71875 45.2637 4.56641C45.2637 4.43359 45.248 4.29688 45.2168 4.15625C45.1855 4.01562 45.1367 3.88867 45.0703 3.77539C45.0039 3.6582 44.916 3.56445 44.8066 3.49414C44.6973 3.41992 44.5645 3.38281 44.4082 3.38281C44.1855 3.38281 43.998 3.44336 43.8457 3.56445C43.6973 3.68555 43.5742 3.8418 43.4766 4.0332C43.3828 4.22461 43.3105 4.44141 43.2598 4.68359C43.209 4.92578 43.1719 5.16797 43.1484 5.41016C43.1289 5.64844 43.1172 5.87695 43.1133 6.0957C43.1133 6.31445 43.1133 6.49805 43.1133 6.64648C43.1133 6.82227 43.1133 6.99805 43.1133 7.17383C43.1133 7.34961 43.1152 7.52539 43.1191 7.70117C43.3887 7.70117 43.666 7.69141 43.9512 7.67188C44.2402 7.64844 44.5137 7.59766 44.7715 7.51953L44.8301 7.60156ZM47.2734 7.92969C47.2734 7.97266 47.2578 8.01172 47.2266 8.04688C47.1953 8.07812 47.1582 8.09375 47.1152 8.09375C47.0801 8.09375 47.043 8.08398 47.0039 8.06445C46.9648 8.04102 46.9199 8.01562 46.8691 7.98828C46.8223 7.96094 46.7656 7.9375 46.6992 7.91797C46.6367 7.89453 46.5645 7.88281 46.4824 7.88281C46.291 7.88281 46.1191 7.94336 45.9668 8.06445C45.8184 8.18164 45.6914 8.32812 45.5859 8.50391C45.4844 8.67969 45.4062 8.86719 45.3516 9.06641C45.2969 9.26562 45.2695 9.44531 45.2695 9.60547C45.2695 9.71875 45.2793 9.83008 45.2988 9.93945C45.3184 10.0449 45.3516 10.1426 45.3984 10.2324C45.4492 10.3184 45.5176 10.3887 45.6035 10.4434C45.6895 10.4941 45.7988 10.5195 45.9316 10.5195C46.0723 10.5195 46.207 10.4941 46.3359 10.4434C46.4648 10.3887 46.5859 10.3184 46.6992 10.2324C46.7031 10.1074 46.7227 9.97656 46.7578 9.83984C46.7969 9.69922 46.8457 9.5625 46.9043 9.42969C46.9629 9.29297 47.0293 9.16406 47.1035 9.04297C47.1816 8.92188 47.2617 8.81445 47.3438 8.7207L47.4199 8.76758C47.377 8.90039 47.3457 9.03711 47.3262 9.17773C47.3066 9.31836 47.2969 9.45703 47.2969 9.59375C47.2969 9.73438 47.3086 9.86719 47.332 9.99219C47.3555 10.1172 47.3965 10.2266 47.4551 10.3203C47.5137 10.4102 47.5938 10.4824 47.6953 10.5371C47.7969 10.5879 47.9277 10.6133 48.0879 10.6133C48.2832 10.6133 48.4629 10.5684 48.627 10.4785C48.791 10.3887 48.9355 10.2754 49.0605 10.1387L49.1074 10.1621C49.0371 10.2988 48.9453 10.4297 48.832 10.5547C48.7188 10.6797 48.5918 10.793 48.4512 10.8945C48.3145 10.9922 48.168 11.0703 48.0117 11.1289C47.8555 11.1875 47.7012 11.2168 47.5488 11.2168C47.334 11.2168 47.1582 11.1543 47.0215 11.0293C46.8848 10.9082 46.791 10.7539 46.7402 10.5664C46.5762 10.7305 46.3926 10.8691 46.1895 10.9824C45.9902 11.0918 45.7793 11.1465 45.5566 11.1465C45.3926 11.1465 45.2461 11.1152 45.1172 11.0527C44.9922 10.9941 44.8867 10.9141 44.8008 10.8125C44.7148 10.7109 44.6484 10.5918 44.6016 10.4551C44.5586 10.3145 44.5371 10.168 44.5371 10.0156C44.5371 9.83984 44.5645 9.66016 44.6191 9.47656C44.6777 9.28906 44.7559 9.10547 44.8535 8.92578C44.9551 8.74609 45.0742 8.57617 45.2109 8.41602C45.3477 8.25586 45.4961 8.11523 45.6562 7.99414C45.8203 7.87305 45.9922 7.77734 46.1719 7.70703C46.3516 7.63672 46.5352 7.60156 46.7227 7.60156C46.7656 7.60156 46.8184 7.60742 46.8809 7.61914C46.9434 7.62695 47.0039 7.64258 47.0625 7.66602C47.1211 7.68945 47.1699 7.72266 47.209 7.76562C47.252 7.80859 47.2734 7.86328 47.2734 7.92969ZM51.9902 10.3555C51.8652 10.6133 51.6895 10.8184 51.4629 10.9707C51.2363 11.1191 50.9785 11.1934 50.6895 11.1934C50.4512 11.1934 50.2383 11.1211 50.0508 10.9766C49.8633 10.832 49.6973 10.6426 49.5527 10.4082C49.4121 10.1738 49.291 9.91016 49.1895 9.61719C49.0918 9.32031 49.0098 9.01953 48.9434 8.71484C48.8809 8.41016 48.834 8.11719 48.8027 7.83594C48.7754 7.55078 48.7617 7.30273 48.7617 7.0918C48.7617 6.83398 48.7754 6.55078 48.8027 6.24219C48.8301 5.93359 48.875 5.62305 48.9375 5.31055C49 4.99414 49.0801 4.6875 49.1777 4.39062C49.2793 4.09375 49.4004 3.83203 49.541 3.60547C49.6855 3.375 49.8516 3.19141 50.0391 3.05469C50.2266 2.91406 50.4414 2.84375 50.6836 2.84375C50.8906 2.84375 51.0586 2.9043 51.1875 3.02539C51.3164 3.14648 51.418 3.29687 51.4922 3.47656C51.5664 3.65234 51.6152 3.83984 51.6387 4.03906C51.666 4.23828 51.6797 4.41602 51.6797 4.57227C51.6797 4.99414 51.6289 5.41016 51.5273 5.82031C51.4297 6.22656 51.293 6.61133 51.1172 6.97461C50.9453 7.33398 50.7422 7.66211 50.5078 7.95898C50.2734 8.25195 50.0215 8.49805 49.752 8.69727C49.8066 8.95898 49.8711 9.21484 49.9453 9.46484C50.0234 9.71094 50.1172 9.93164 50.2266 10.127C50.3359 10.3184 50.4609 10.4746 50.6016 10.5957C50.7461 10.7129 50.9102 10.7715 51.0938 10.7715C51.2773 10.7715 51.4355 10.7344 51.5684 10.6602C51.7012 10.5859 51.8242 10.4766 51.9375 10.332L51.9902 10.3555ZM49.5762 6.74023C49.5723 6.82617 49.5703 6.93164 49.5703 7.05664C49.5742 7.18164 49.5801 7.32031 49.5879 7.47266C49.5996 7.62109 49.6152 7.78125 49.6348 7.95312C49.6543 8.125 49.6797 8.30078 49.7109 8.48047C49.9727 8.24609 50.1953 7.98633 50.3789 7.70117C50.5625 7.41602 50.7129 7.10938 50.8301 6.78125C50.9473 6.44922 51.0312 6.10156 51.082 5.73828C51.1367 5.37109 51.1641 4.99023 51.1641 4.5957C51.1641 4.54492 51.1621 4.47852 51.1582 4.39648C51.1582 4.31445 51.1523 4.22656 51.1406 4.13281C51.1289 4.03906 51.1113 3.94531 51.0879 3.85156C51.0684 3.75781 51.0391 3.67383 51 3.59961C50.9648 3.52148 50.918 3.45898 50.8594 3.41211C50.8047 3.36133 50.7383 3.33594 50.6602 3.33594C50.5117 3.33594 50.3809 3.41016 50.2676 3.55859C50.1582 3.70313 50.0625 3.88867 49.9805 4.11523C49.9023 4.3418 49.8359 4.5918 49.7812 4.86523C49.7305 5.13867 49.6895 5.40234 49.6582 5.65625C49.627 5.90625 49.6055 6.13086 49.5938 6.33008C49.582 6.5293 49.5762 6.66602 49.5762 6.74023ZM55.084 10.3555C54.959 10.6133 54.7832 10.8184 54.5566 10.9707C54.3301 11.1191 54.0723 11.1934 53.7832 11.1934C53.5449 11.1934 53.332 11.1211 53.1445 10.9766C52.957 10.832 52.791 10.6426 52.6465 10.4082C52.5059 10.1738 52.3848 9.91016 52.2832 9.61719C52.1855 9.32031 52.1035 9.01953 52.0371 8.71484C51.9746 8.41016 51.9277 8.11719 51.8965 7.83594C51.8691 7.55078 51.8555 7.30273 51.8555 7.0918C51.8555 6.83398 51.8691 6.55078 51.8965 6.24219C51.9238 5.93359 51.9688 5.62305 52.0312 5.31055C52.0938 4.99414 52.1738 4.6875 52.2715 4.39062C52.373 4.09375 52.4941 3.83203 52.6348 3.60547C52.7793 3.375 52.9453 3.19141 53.1328 3.05469C53.3203 2.91406 53.5352 2.84375 53.7773 2.84375C53.9844 2.84375 54.1523 2.9043 54.2812 3.02539C54.4102 3.14648 54.5117 3.29687 54.5859 3.47656C54.6602 3.65234 54.709 3.83984 54.7324 4.03906C54.7598 4.23828 54.7734 4.41602 54.7734 4.57227C54.7734 4.99414 54.7227 5.41016 54.6211 5.82031C54.5234 6.22656 54.3867 6.61133 54.2109 6.97461C54.0391 7.33398 53.8359 7.66211 53.6016 7.95898C53.3672 8.25195 53.1152 8.49805 52.8457 8.69727C52.9004 8.95898 52.9648 9.21484 53.0391 9.46484C53.1172 9.71094 53.2109 9.93164 53.3203 10.127C53.4297 10.3184 53.5547 10.4746 53.6953 10.5957C53.8398 10.7129 54.0039 10.7715 54.1875 10.7715C54.3711 10.7715 54.5293 10.7344 54.6621 10.6602C54.7949 10.5859 54.918 10.4766 55.0312 10.332L55.084 10.3555ZM52.6699 6.74023C52.666 6.82617 52.6641 6.93164 52.6641 7.05664C52.668 7.18164 52.6738 7.32031 52.6816 7.47266C52.6934 7.62109 52.709 7.78125 52.7285 7.95312C52.748 8.125 52.7734 8.30078 52.8047 8.48047C53.0664 8.24609 53.2891 7.98633 53.4727 7.70117C53.6562 7.41602 53.8066 7.10938 53.9238 6.78125C54.041 6.44922 54.125 6.10156 54.1758 5.73828C54.2305 5.37109 54.2578 4.99023 54.2578 4.5957C54.2578 4.54492 54.2559 4.47852 54.252 4.39648C54.252 4.31445 54.2461 4.22656 54.2344 4.13281C54.2227 4.03906 54.2051 3.94531 54.1816 3.85156C54.1621 3.75781 54.1328 3.67383 54.0938 3.59961C54.0586 3.52148 54.0117 3.45898 53.9531 3.41211C53.8984 3.36133 53.832 3.33594 53.7539 3.33594C53.6055 3.33594 53.4746 3.41016 53.3613 3.55859C53.252 3.70313 53.1562 3.88867 53.0742 4.11523C52.9961 4.3418 52.9297 4.5918 52.875 4.86523C52.8242 5.13867 52.7832 5.40234 52.752 5.65625C52.7207 5.90625 52.6992 6.13086 52.6875 6.33008C52.6758 6.5293 52.6699 6.66602 52.6699 6.74023Z" fill="url(#paint0_linear)"/>
<path d="M31.3003 18.9707V17.4253C31.3003 17.4048 31.3101 17.3945 31.3296 17.3945H31.4951C31.5146 17.3945 31.5254 17.4048 31.5273 17.4253L31.5552 17.5894C31.561 17.5835 31.5688 17.5752 31.5786 17.5645C31.5894 17.5537 31.6108 17.5342 31.6431 17.5059C31.6763 17.4775 31.7109 17.4531 31.7471 17.4326C31.8408 17.3779 31.9443 17.3506 32.0576 17.3506C32.1709 17.3506 32.2715 17.3779 32.3594 17.4326C32.4473 17.4873 32.5142 17.5649 32.5601 17.6655C32.5884 17.6235 32.623 17.582 32.6641 17.541C32.7051 17.5 32.7676 17.458 32.8516 17.415C32.9355 17.3721 33.0234 17.3506 33.1152 17.3506C33.293 17.3506 33.4346 17.4106 33.54 17.5308C33.6465 17.6499 33.6997 17.8198 33.6997 18.0405V18.9707C33.6997 18.9902 33.6899 19 33.6704 19H33.4595C33.4399 19 33.4302 18.9902 33.4302 18.9707V18.0405C33.4302 17.8823 33.3989 17.7627 33.3364 17.6816C33.2749 17.6006 33.2002 17.5601 33.1123 17.5601C33.0244 17.5601 32.9419 17.5874 32.8647 17.6421C32.7876 17.6958 32.73 17.7466 32.6919 17.7944C32.6538 17.8423 32.6348 17.8691 32.6348 17.875V18.9707C32.6348 18.9902 32.625 19 32.6055 19H32.3945C32.375 19 32.3652 18.9902 32.3652 18.9707V18.0405C32.3652 17.8823 32.334 17.7627 32.2715 17.6816C32.21 17.6006 32.1353 17.5601 32.0474 17.5601C31.9595 17.5601 31.877 17.5874 31.7998 17.6421C31.7227 17.6958 31.665 17.7466 31.627 17.7944C31.5889 17.8423 31.5698 17.8691 31.5698 17.875V18.9707C31.5698 18.9902 31.5601 19 31.5405 19H31.3296C31.3101 19 31.3003 18.9902 31.3003 18.9707ZM34.3193 18.9092C34.207 18.8174 34.1509 18.6929 34.1509 18.5356C34.1509 18.3774 34.2085 18.2529 34.3237 18.1621C34.4399 18.0703 34.6021 18.0244 34.8101 18.0244H35.3213V18.0098C35.3213 17.71 35.1709 17.5601 34.8701 17.5601C34.7764 17.5601 34.6963 17.5825 34.6299 17.6274C34.5645 17.6724 34.5195 17.73 34.4951 17.8003C34.4893 17.8198 34.4775 17.8296 34.46 17.8296H34.271C34.2485 17.8296 34.2383 17.8198 34.2402 17.8003C34.2559 17.6646 34.3203 17.5557 34.4336 17.4736C34.5469 17.3916 34.6924 17.3506 34.8701 17.3506C35.1025 17.3506 35.2808 17.4082 35.4048 17.5234C35.5288 17.6377 35.5908 17.7998 35.5908 18.0098V18.9707C35.5908 18.9902 35.5806 19 35.5601 19H35.396C35.3765 19 35.3652 18.9902 35.3623 18.9707L35.3359 18.8052C35.3242 18.8237 35.2983 18.8496 35.2583 18.8828C35.2183 18.915 35.1782 18.9414 35.1382 18.9619C35.0327 19.0176 34.9136 19.0454 34.7808 19.0454C34.5864 19.0454 34.4326 19 34.3193 18.9092ZM34.4204 18.5356C34.4204 18.6333 34.4526 18.7075 34.5171 18.7583C34.5825 18.8091 34.6753 18.8345 34.7954 18.8345C34.8599 18.8345 34.9219 18.8237 34.9814 18.8022C35.042 18.7798 35.0913 18.7539 35.1294 18.7246C35.1685 18.6943 35.2031 18.6636 35.2334 18.6323C35.2637 18.6011 35.2856 18.5752 35.2993 18.5547C35.314 18.5332 35.3213 18.5215 35.3213 18.5195V18.2354H34.8101C34.5503 18.2354 34.4204 18.3354 34.4204 18.5356ZM36.7759 19.0454C36.562 19.0454 36.3857 18.9731 36.2471 18.8286C36.1094 18.6831 36.0405 18.4736 36.0405 18.2002C36.0405 17.9258 36.1113 17.7158 36.2529 17.5703C36.3955 17.4238 36.5796 17.3506 36.8052 17.3506C36.8813 17.3506 36.957 17.3579 37.0322 17.3726C37.1074 17.3872 37.1626 17.4019 37.1978 17.4165L37.2549 17.4399V16.9302C37.2549 16.9106 37.2651 16.9004 37.2856 16.8994H37.4951C37.5146 16.8994 37.5249 16.9097 37.5259 16.9302V18.9707C37.5259 18.9902 37.5156 19 37.4951 19H37.3311C37.3115 19 37.3003 18.9902 37.2974 18.9707L37.271 18.8052C37.2593 18.8218 37.2339 18.8472 37.1948 18.8813C37.1567 18.9146 37.1201 18.9414 37.085 18.9619C36.9941 19.0176 36.8911 19.0454 36.7759 19.0454ZM36.8286 17.5601C36.6753 17.5601 36.5503 17.6133 36.4536 17.7197C36.3579 17.8252 36.3101 17.9834 36.3101 18.1943C36.3101 18.4053 36.354 18.5649 36.4419 18.6733C36.5298 18.7808 36.646 18.8345 36.7905 18.8345C36.9272 18.8345 37.0547 18.7671 37.1729 18.6323C37.2275 18.5698 37.2549 18.5322 37.2549 18.5195V17.6494C37.125 17.5898 36.9829 17.5601 36.8286 17.5601ZM38.7622 19.0483C38.5444 19.0483 38.3638 18.9746 38.2202 18.8271C38.0776 18.6787 38.0063 18.4683 38.0063 18.1958C38.0063 17.9224 38.0776 17.7134 38.2202 17.5688C38.3638 17.4233 38.5508 17.3506 38.7812 17.3506C39.0127 17.3506 39.2012 17.4248 39.3467 17.5732C39.4932 17.7207 39.5664 17.9165 39.5664 18.1606V18.2354C39.5664 18.2754 39.5464 18.2954 39.5063 18.2954H38.2788C38.2954 18.4771 38.3491 18.6128 38.4399 18.7026C38.5308 18.7925 38.646 18.8374 38.7856 18.8374C39.0063 18.8374 39.1665 18.7476 39.2661 18.5679C39.2778 18.5483 39.29 18.5386 39.3027 18.5386H39.4917C39.5171 18.5386 39.5269 18.5503 39.521 18.5737C39.481 18.7183 39.3989 18.8335 39.2749 18.9194C39.1509 19.0054 38.98 19.0483 38.7622 19.0483ZM38.2788 18.0845H39.2969C39.2881 17.9272 39.2344 17.8008 39.1357 17.7051C39.0371 17.6084 38.9194 17.5601 38.7827 17.5601C38.647 17.5601 38.5332 17.6045 38.4414 17.6934C38.3496 17.7822 38.2954 17.9126 38.2788 18.0845ZM40.9478 18.8652V16.9302C40.9478 16.9106 40.9575 16.9004 40.9771 16.8994H41.188C41.2075 16.8994 41.2173 16.9097 41.2173 16.9302V17.4399C41.3472 17.3804 41.4971 17.3506 41.667 17.3506C41.8926 17.3506 42.0767 17.4238 42.2192 17.5703C42.3618 17.7158 42.4331 17.9248 42.4331 18.1973C42.4331 18.4688 42.3613 18.6782 42.2178 18.8257C42.0752 18.9722 41.8867 19.0454 41.6523 19.0454C41.5244 19.0454 41.4014 19.0303 41.2832 19C41.165 18.9697 41.0791 18.9399 41.0254 18.9106L40.9478 18.8652ZM41.2173 18.7451C41.2173 18.7471 41.2344 18.7554 41.2686 18.77C41.3027 18.7837 41.3535 18.7979 41.4209 18.8125C41.4893 18.8271 41.5566 18.8345 41.623 18.8345C41.7891 18.8345 41.9204 18.7812 42.0171 18.6748C42.1138 18.5674 42.1621 18.4077 42.1621 18.1958C42.1621 17.9839 42.1143 17.8252 42.0186 17.7197C41.9229 17.6133 41.7979 17.5601 41.6436 17.5601C41.4893 17.5601 41.3472 17.5898 41.2173 17.6494V18.7451ZM42.647 17.4253C42.645 17.4214 42.644 17.4175 42.644 17.4136C42.644 17.4009 42.6528 17.3945 42.6704 17.3945H42.8726C42.896 17.3945 42.9106 17.4048 42.9165 17.4253L43.2505 18.3848C43.2944 18.5088 43.3447 18.5977 43.4014 18.6514C43.458 18.7041 43.5356 18.7305 43.6343 18.7305L43.9785 17.4253C43.9844 17.4048 43.9995 17.3945 44.0239 17.3945H44.2246C44.2432 17.3945 44.2524 17.4009 44.2524 17.4136C44.2524 17.4175 44.2515 17.4214 44.2495 17.4253L43.8496 18.9399C43.7939 19.1499 43.7197 19.3022 43.627 19.397C43.5352 19.4927 43.4146 19.5405 43.2651 19.5405C43.1606 19.5405 43.0645 19.5254 42.9766 19.4951L42.9355 19.4805C42.915 19.4697 42.9048 19.4565 42.9048 19.4409V19.2944C42.9048 19.27 42.915 19.2617 42.9355 19.2695C43.0352 19.3096 43.1328 19.3296 43.2285 19.3296C43.3252 19.3296 43.3989 19.3018 43.4497 19.2461C43.5005 19.1904 43.5439 19.0884 43.5801 18.9399C43.4238 18.9399 43.3027 18.8989 43.2168 18.8169C43.1309 18.7349 43.0518 18.5898 42.9795 18.3818L42.647 17.4253ZM45.5122 18.3848V16.9302C45.5122 16.9097 45.522 16.8994 45.5415 16.8994H45.7524C45.772 16.8994 45.7817 16.9097 45.7817 16.9302V17.3945H46.394C46.4136 17.3945 46.4233 17.4048 46.4233 17.4253V17.5747C46.4233 17.5952 46.4136 17.6055 46.394 17.6055H45.7817V18.3848C45.7817 18.5332 45.8159 18.6455 45.8843 18.7217C45.9536 18.7969 46.0493 18.8345 46.1714 18.8345C46.2788 18.8345 46.375 18.8198 46.46 18.7905L46.5024 18.7744C46.522 18.7666 46.5317 18.7749 46.5317 18.7993V18.9458C46.5317 18.9624 46.522 18.9756 46.5024 18.9854C46.4019 19.0254 46.2817 19.0454 46.1421 19.0454C45.9497 19.0454 45.7964 18.9849 45.6821 18.8638C45.5688 18.7427 45.5122 18.583 45.5122 18.3848ZM46.8936 16.9595C46.8936 16.9194 46.9136 16.8994 46.9536 16.8994H47.1484C47.1709 16.8994 47.1865 16.9043 47.1953 16.9141C47.2041 16.9229 47.2085 16.938 47.2085 16.9595V17.1543C47.2085 17.1768 47.2041 17.1924 47.1953 17.2012C47.1865 17.21 47.1709 17.2144 47.1484 17.2144H46.9536C46.9321 17.2144 46.9165 17.21 46.9067 17.2012C46.8979 17.1924 46.8936 17.1768 46.8936 17.1543V16.9595ZM46.9155 18.9707V17.4253C46.9155 17.4048 46.9253 17.3945 46.9448 17.3945H47.1543C47.1748 17.3945 47.1851 17.4048 47.1851 17.4253V18.9707C47.1851 18.9902 47.1748 19 47.1543 19H46.9448C46.9253 19 46.9155 18.9902 46.9155 18.9707ZM47.8281 18.9092C47.7158 18.8174 47.6597 18.6929 47.6597 18.5356C47.6597 18.3774 47.7173 18.2529 47.8325 18.1621C47.9487 18.0703 48.1108 18.0244 48.3188 18.0244H48.8301V18.0098C48.8301 17.71 48.6797 17.5601 48.3789 17.5601C48.2852 17.5601 48.2051 17.5825 48.1387 17.6274C48.0732 17.6724 48.0283 17.73 48.0039 17.8003C47.998 17.8198 47.9863 17.8296 47.9688 17.8296H47.7798C47.7573 17.8296 47.7471 17.8198 47.749 17.8003C47.7646 17.6646 47.8291 17.5557 47.9424 17.4736C48.0557 17.3916 48.2012 17.3506 48.3789 17.3506C48.6113 17.3506 48.7896 17.4082 48.9136 17.5234C49.0376 17.6377 49.0996 17.7998 49.0996 18.0098V18.9707C49.0996 18.9902 49.0894 19 49.0688 19H48.9048C48.8853 19 48.874 18.9902 48.8711 18.9707L48.8447 18.8052C48.833 18.8237 48.8071 18.8496 48.7671 18.8828C48.7271 18.915 48.687 18.9414 48.647 18.9619C48.5415 19.0176 48.4224 19.0454 48.2896 19.0454C48.0952 19.0454 47.9414 19 47.8281 18.9092ZM47.9292 18.5356C47.9292 18.6333 47.9614 18.7075 48.0259 18.7583C48.0913 18.8091 48.1841 18.8345 48.3042 18.8345C48.3687 18.8345 48.4307 18.8237 48.4902 18.8022C48.5508 18.7798 48.6001 18.7539 48.6382 18.7246C48.6772 18.6943 48.7119 18.6636 48.7422 18.6323C48.7725 18.6011 48.7944 18.5752 48.8081 18.5547C48.8228 18.5332 48.8301 18.5215 48.8301 18.5195V18.2354H48.3188C48.0591 18.2354 47.9292 18.3354 47.9292 18.5356ZM49.6694 18.9707V17.4253C49.6694 17.4048 49.6792 17.3945 49.6987 17.3945H49.8643C49.8838 17.3945 49.8945 17.4048 49.8965 17.4253L49.9243 17.5894C49.936 17.5728 49.9614 17.5479 50.0005 17.5146C50.0396 17.4805 50.0776 17.4531 50.1147 17.4326C50.2104 17.3779 50.3218 17.3506 50.4487 17.3506C50.6509 17.3506 50.8164 17.4131 50.9453 17.5381C51.0742 17.6631 51.1387 17.8354 51.1387 18.0552V18.9707C51.1387 18.9902 51.1289 19 51.1094 19H50.8984C50.8789 19 50.8691 18.9902 50.8691 18.9707V18.0552C50.8691 17.897 50.8281 17.7749 50.7461 17.689C50.6641 17.603 50.5601 17.5601 50.4341 17.5601C50.3765 17.5601 50.3193 17.5713 50.2627 17.5938C50.207 17.6152 50.1606 17.6411 50.1235 17.6714C50.0864 17.7007 50.0537 17.731 50.0254 17.7622C49.9678 17.8237 49.939 17.8613 49.939 17.875V18.9707C49.939 18.9902 49.9292 19 49.9097 19H49.6987C49.6792 19 49.6694 18.9902 49.6694 18.9707ZM51.4302 17.4253C51.4282 17.4214 51.4272 17.4175 51.4272 17.4136C51.4272 17.4009 51.436 17.3945 51.4536 17.3945H51.6558C51.6792 17.3945 51.6938 17.4048 51.6997 17.4253L52.0337 18.3848C52.0776 18.5088 52.1279 18.5977 52.1846 18.6514C52.2412 18.7041 52.3188 18.7305 52.4175 18.7305L52.7617 17.4253C52.7676 17.4048 52.7827 17.3945 52.8071 17.3945H53.0078C53.0264 17.3945 53.0356 17.4009 53.0356 17.4136C53.0356 17.4175 53.0347 17.4214 53.0327 17.4253L52.6328 18.9399C52.5771 19.1499 52.5029 19.3022 52.4102 19.397C52.3184 19.4927 52.1978 19.5405 52.0483 19.5405C51.9438 19.5405 51.8477 19.5254 51.7598 19.4951L51.7188 19.4805C51.6982 19.4697 51.688 19.4565 51.688 19.4409V19.2944C51.688 19.27 51.6982 19.2617 51.7188 19.2695C51.8184 19.3096 51.916 19.3296 52.0117 19.3296C52.1084 19.3296 52.1821 19.3018 52.2329 19.2461C52.2837 19.1904 52.3271 19.0884 52.3633 18.9399C52.207 18.9399 52.0859 18.8989 52 18.8169C51.9141 18.7349 51.835 18.5898 51.7627 18.3818L51.4302 17.4253ZM53.396 18.3394V17.4253C53.396 17.4058 53.4058 17.3955 53.4253 17.3945H53.6362C53.6558 17.3945 53.6655 17.4048 53.6655 17.4253V18.3394C53.6655 18.4976 53.7065 18.6196 53.7886 18.7056C53.8706 18.7915 53.9746 18.8345 54.1006 18.8345C54.1582 18.8345 54.2148 18.8237 54.2705 18.8022C54.3271 18.7798 54.374 18.7539 54.4111 18.7246C54.4482 18.6943 54.4814 18.6636 54.5107 18.6323C54.5674 18.5708 54.5957 18.5332 54.5957 18.5195V17.4253C54.5957 17.4058 54.6055 17.3955 54.625 17.3945H54.8359C54.8555 17.3945 54.8652 17.4048 54.8652 17.4253V18.9707C54.8652 18.9902 54.8555 19 54.8359 19H54.6704C54.6509 19 54.6401 18.9902 54.6382 18.9707L54.6104 18.8052C54.5977 18.8247 54.5718 18.8506 54.5327 18.8828C54.4946 18.915 54.457 18.9414 54.4199 18.9619C54.3223 19.0176 54.2109 19.0454 54.0859 19.0454C53.8838 19.0454 53.7183 18.9829 53.5894 18.8579C53.4604 18.7319 53.396 18.5591 53.396 18.3394Z" fill="url(#paint1_linear)"/>
<defs>
<linearGradient id="paint0_linear" x1="-5" y1="11" x2="62" y2="11" gradientUnits="userSpaceOnUse">
<stop stop-color="#EE0B0B"/>
<stop offset="0.479167" stop-color="#C591CD"/>
<stop offset="0.890625" stop-color="#00C7BB"/>
</linearGradient>
<linearGradient id="paint1_linear" x1="28.7273" y1="18.75" x2="59.1818" y2="18.75" gradientUnits="userSpaceOnUse">
<stop stop-color="#EE0B0B"/>
<stop offset="0.479167" stop-color="#C591CD"/>
<stop offset="0.890625" stop-color="#00C7BB"/>
</linearGradient>
</defs>
</svg>
